# xmcd
#
# Track frame offsets: 
#        150
#        15934
#        31980
#        48889
#        57567
#        73817
#        84877
#        101285
#        116997
#        127427
#
# Disc length: 1890 seconds
#
# Revision: 0
# Processed by: cddbd v1.4PL0 Copyright (c) Steve Scherf et al.
# Submitted via: ExactAudioCopy v0.90a11
#
DISCID=8407600a
DTITLE=Bill Booth and the Convertibles - Heart in Hand
DYEAR=1900
DGENRE=
TTITLE0=Hot Lovin'
TTITLE1=Heart in Hand
TTITLE2=Anybody out there
TTITLE3=Stand this abuse
TTITLE4=I know what I do wrong
TTITLE5=Hit the big time
TTITLE6=One night with love
TTITLE7=Sleeping alone with the blues
TTITLE8=Are you leaving me
TTITLE9=Looking to hard
EXTD=Wheeling Records\nWR CD 980002
EXTT0=
EXTT1=
EXTT2=
EXTT3=
EXTT4=
EXTT5=
EXTT6=
EXTT7=
EXTT8=
EXTT9=
PLAYORDER=
